<?xml version="1.0" encoding="UTF-8"?>
<svg id="Layer_1" xmlns="http://www.w3.org/2000/svg" version="1.1" viewBox="0 0 511.8 499">
  <!-- Generator: Adobe Illustrator 29.2.1, SVG Export Plug-In . SVG Version: 2.1.0 Build 116)  -->
  <defs>
    <style>
      .st0 {
        fill: #fff;
      }

      .st1 {
        fill: #333;
      }
    </style>
  </defs>
  <rect class="st1" width="511.8" height="499" rx="90.6" ry="90.6"/>
  <path class="st0" d="M115.2,349.9v-219.4c0-1.6.7-2.4,2.1-2.4,3.7,0,7,0,12-.2,5-.2,10.5-.2,16.3-.3l18.5-.3c6.5-.1,13-.2,19.4-.2,17.4,0,32.1,2.2,44,6.5,10.7,3.6,20.5,9.6,28.7,17.5,6.9,6.8,12.2,15.1,15.6,24.2,3.2,8.9,4.8,18.2,4.8,27.7,0,18.3-4.2,33.4-12.7,45.3-8.5,11.9-20.5,21-34.3,25.9-14.4,5.4-30.4,7.2-48.1,7.2s-8.6,0-10.6-.2-5.1-.2-9.3-.2v68.5c.2,1.5-.8,2.9-2.3,3.1,0,0,0,0,0,0-.3,0-.5,0-.8,0h-40.9c-1.6,0-2.4-.9-2.4-2.8ZM161.6,169.3v71.6c3,.2,5.7.3,8.2.3h11.3c8.3,0,16.6-1.4,24.6-3.9,6.8-2,12.9-5.9,17.5-11.3,4.5-5.3,6.7-12.6,6.7-22,.2-6.6-1.6-13.2-5-18.9-3.6-5.5-8.8-9.8-14.9-12.2-8-3.1-16.5-4.6-25-4.3-5.5,0-10.4,0-14.6.2s-7.1.3-8.8.5h0Z"/>
  <path class="st0" d="M409.4,227.9c-6.5-3.3-13.3-5.7-20.4-7.2-7.8-1.8-15.8-2.7-23.9-2.8-4.3-.1-8.7.4-12.9,1.6-2.7.6-5,2.1-6.7,4.3-1.1,1.7-1.7,3.8-1.7,5.8,0,2,.8,3.9,2.1,5.5,2,2.3,4.5,4.3,7.2,5.7,4.9,2.6,9.9,5,15.1,7,11.5,3.9,22.5,9.1,32.8,15.6,7,4.4,12.8,10.5,16.8,17.7,3.4,6.8,5.1,14.4,5,22,.2,10.1-2.7,19.9-8.2,28.3-6,8.5-14.2,15.1-23.9,19-10.4,4.6-23.3,6.9-38.7,6.9-9.7,0-19.5-.8-29-2.8-7.5-1.4-14.8-3.7-21.8-6.9-1.5-.8-2.5-2.4-2.4-4.1v-37.1c0-.7.2-1.5.9-1.9.6-.3,1.4-.3,1.9.2,8.2,4.8,17.1,8.4,26.5,10.5,8.2,2.1,16.6,3.2,25.1,3.3,8,0,13.9-1,17.7-3.1,3.5-1.6,5.7-5.1,5.7-8.9,0-3-1.7-5.8-5.1-8.6-3.4-2.7-10.4-6-21-9.9-10.8-3.8-21-8.9-30.4-15.5-6.7-4.7-12.2-10.8-16.1-18-3.4-6.8-5.1-14.2-5-21.8,0-9.1,2.5-18,7.2-25.8,5.4-8.5,13.1-15.3,22.3-19.6,10.1-5,22.7-7.6,37.8-7.6,8.8,0,17.7.6,26.4,1.9,6.3.8,12.5,2.5,18.4,5,.9.3,1.7,1,2.1,1.9.2.8.3,1.7.3,2.6v34.7c0,.8-.3,1.6-1,2.1-.9.5-2,.5-3,0Z"/>
</svg>