<?xml version="1.0" encoding="UTF-8"?>
<svg id="Layer_1" xmlns="http://www.w3.org/2000/svg" version="1.1" viewBox="0 0 511.5 498.7">
  <!-- Generator: Adobe Illustrator 29.2.1, SVG Export Plug-In . SVG Version: 2.1.0 Build 116)  -->
  <defs>
    <style>
      .st0 {
        fill: #fff;
      }

      .st1 {
        fill: #333;
      }
    </style>
  </defs>
  <rect class="st1" width="511.5" height="498.7" rx="90.6" ry="90.6"/>
  <path class="st0" d="M247.8,299.3h-79.3l-16.1,50.1c-.4,1.9-2.2,3.2-4.1,3.1h-40.1c-2.3,0-3.1-1.3-2.4-3.8l68.6-197.7c.7-2.1,1.4-4.4,2.1-7,.9-4.6,1.3-9.2,1.4-13.9-.2-1.2.6-2.2,1.8-2.4,0,0,0,0,0,0,.2,0,.4,0,.6,0h54.6c1.6,0,2.5.6,2.8,1.7l77.9,219.6c.7,2.3,0,3.4-2.1,3.4h-44.6c-1.6.2-3.1-.9-3.4-2.4l-17.5-50.8ZM180.9,256h54.2c-1.4-4.6-3-9.7-4.8-15.4-1.8-5.7-3.8-11.8-5.8-18.4l-6.2-19.6c-2.1-6.5-3.9-12.8-5.7-18.9-1.7-6.1-3.3-11.6-4.7-16.6h-.3c-1.9,9.3-4.3,18.4-7.2,27.4-3.2,10.3-6.5,20.8-9.8,31.6-3.3,10.7-6.6,20.7-9.7,29.8Z"/>
  <path class="st0" d="M361.7,164.1c-7.1.3-13.9-2.5-18.9-7.6-4.9-5.3-7.5-12.3-7.2-19.6-.2-7.1,2.6-14,7.7-19,5.1-4.9,11.9-7.5,19-7.4,8.2,0,14.7,2.5,19.4,7.4,4.8,5.2,7.3,12,7,19,.3,7.3-2.4,14.3-7.4,19.6-5.2,5.1-12.3,7.9-19.6,7.6ZM338.1,349v-164c0-2.1.9-3.1,2.7-3.1h42.2c1.8,0,2.7,1,2.7,3.1v164c0,2.3-.9,3.4-2.7,3.4h-41.8c-2.1,0-3.1-1.1-3.1-3.4Z"/>
</svg>