<?xml version="1.0" encoding="UTF-8"?>
<svg id="Layer_1" xmlns="http://www.w3.org/2000/svg" version="1.1" viewBox="0 0 512.8 500">
  <!-- Generator: Adobe Illustrator 29.2.1, SVG Export Plug-In . SVG Version: 2.1.0 Build 116)  -->
  <defs>
    <style>
      .st0 {
        fill: #fff;
      }

      .st1 {
        fill: #333;
      }
    </style>
  </defs>
  <path class="st1" d="M90.8,0h331.2c50.1,0,90.8,40.5,90.8,90.7,0,0,0,.1,0,.2v318.4c0,50.1-40.6,90.8-90.7,90.8,0,0-.1,0-.2,0H90.8C40.7,500,0,459.5,0,409.4c0,0,0-.1,0-.2V90.8C0,40.7,40.6,0,90.7,0c0,0,0,0,.1,0Z"/>
  <path class="st0" d="M121.8,350.6v-219.9c0-1.5.6-2.4,2.1-2.4,3.6,0,7.1,0,12-.2,5.1-.2,10.5-.2,16.2-.4s12-.2,18.6-.4,13-.2,19.4-.2c17.5,0,32,2.1,44,6.6,10.7,3.6,20.5,9.6,28.6,17.5,6.9,6.9,12.2,15.2,15.6,24.4,3.2,8.9,4.9,18.3,4.9,27.8,0,18.4-4.3,33.6-12.8,45.5-8.6,12-20.6,21-34.4,26.1-14.5,5.3-30.6,7.3-48.1,7.3s-8.6,0-10.7-.2-5.1-.2-9.2-.2v68.6c.2,1.5-.8,2.8-2.3,3,0,0,0,0,0,0h-41.5c-1.7,0-2.6-.9-2.6-2.8ZM168.4,169.6v71.8c3,.2,5.8.4,8.3.4h11.3c8.4,0,16.7-1.3,24.6-3.9,6.8-2,12.9-5.9,17.5-11.3,4.5-5.4,6.6-12.6,6.6-22,.2-6.7-1.5-13.3-4.9-19-3.6-5.6-8.8-9.8-15-12.2-8-3.1-16.6-4.6-25.2-4.3-5.6,0-10.5,0-14.5.2-2.9-.2-5.9-.1-8.8.2h0Z"/>
  <path class="st0" d="M313.3,182.1h37.4c2.1,0,3.9,1.4,4.5,3.4.7,1.7,1.1,3.5,1.3,5.3.4,2.1.9,4.5,1.1,6.6.2,2.4.4,4.9.4,7.7,6.4-7.5,14.2-13.7,22.9-18.4,9.9-5.5,21.1-8.4,32.5-8.3,1.5-.2,2.8.8,3,2.3,0,0,0,0,0,0v42.5c0,1.7-1.1,2.4-3.4,2.4-7.8-.3-15.5.5-23.1,2.1-6.2,1.3-12.2,3.2-17.9,5.8-4.1,1.9-7.8,4.6-10.9,7.9v109c0,2.1-.9,3-2.8,3h-42.1c-1.6.2-3.2-.9-3.4-2.5,0,0,0,0,0,0v-119.3c0-5.1,0-10.5-.2-16s-.2-11.1-.4-16.7c0-4.9-.4-9.6-.9-14.5-.2-1.1.4-2.1,1.5-2.4,0-.2.4-.2.6,0h0Z"/>
</svg>