<?xml version="1.0" encoding="UTF-8"?>
<svg id="_x30_1" xmlns="http://www.w3.org/2000/svg" xmlns:xlink="http://www.w3.org/1999/xlink" version="1.1" viewBox="0 0 963 961.4">
  <!-- Generator: Adobe Illustrator 29.2.1, SVG Export Plug-In . SVG Version: 2.1.0 Build 116)  -->
  <defs>
    <style>
      .st0 {
        fill: #333;
      }
    </style>
  </defs>
  <path class="st0" d="M340.4,382.8c38.4,0,69.6,20.5,85.6,56.1l1.2,2.8,64.4-21.9-1.3-3.3c-24.9-60.8-82.4-98.5-149.9-98.5s-86.1,15.2-118,46.5c-31.7,31.1-47.7,70.2-47.7,116.2s16.1,84.6,47.7,115.6c31.9,31.3,70.5,46.5,118,46.5,67.5,0,124.9-37.8,149.9-98.5l1.3-3.3-64.5-21.9-1.1,2.9c-14.4,35.1-46.4,56-85.6,56s-49.3-9.3-67.1-27.7c-18.1-18.6-27.2-42.1-27.2-69.6s8.9-50.7,27.2-70.2c17.9-18.4,40.4-27.7,67.1-27.7Z"/>
  <path class="st0" d="M620,934.4l-19.2-63.3c173.2-52.6,289.6-209.5,289.6-390.4s-8.9-98.7-26.5-144.9l61.8-23.5c20.5,53.8,30.9,110.4,30.9,168.5-.1,210.1-135.3,392.4-336.6,453.6Z"/>
  <path class="st0" d="M872.5,361.1c-52.9-172.6-210-288.5-391-288.5s-49.2,2.2-73.2,6.5l-11.7-65.1c27.8-5,56.4-7.6,84.9-7.6,210.2,0,392.7,134.7,454.2,335.2l-63.2,19.5Z"/>
  <path class="st0" d="M36.9,647.9c-20.2-53.4-30.4-109.7-30.4-167.2C6.5,235.7,190.4,32.8,434.3,8.8l6.5,65.8C230.9,95.3,72.6,269.9,72.6,480.7s8.8,98,26.1,143.9l-61.8,23.3Z"/>
  <polygon class="st0" points="743.7 324 652 556.4 559.6 324 484 324 613.6 641.2 519.2 870.2 585.3 883.4 815.1 324 743.7 324"/>
  <path class="st0" d="M531.1,841.4l-13.9,33.7c-3.2,7.7-10.5,13-18.7,13.3-5.7.2-11.3.4-17.1.4-181.5,0-343.1-121.5-393-295.5l-63.6,18.2c58,202.1,245.7,343.3,456.5,343.4h.1c6.6,0,13.2,0,19.8-.4,33.9-1.4,64.2-22.7,77.2-54.2l18.8-45.7-66.1-13.2Z"/>
</svg>