<?xml version="1.0" encoding="UTF-8"?>
<svg id="Layer_1" xmlns="http://www.w3.org/2000/svg" version="1.1" viewBox="0 0 122.9 88.9">
  <!-- Generator: Adobe Illustrator 29.2.1, SVG Export Plug-In . SVG Version: 2.1.0 Build 116)  -->
  <defs>
    <style>
      .st0 {
        fill: #333;
      }
    </style>
  </defs>
  <path class="st0" d="M7.1,0h108.8c3.9,0,7,3.2,7,7.1v74.8c0,1.4-.4,2.8-1.2,4-.1.4-.4.7-.7,1-.2.2-.4.3-.7.5-1.3,1.1-2.9,1.6-4.5,1.7H7.1c-3.9,0-7-3.1-7-7V7.1C0,3.2,3.2,0,7.1,0ZM6.8,78.8l36.8-38.2L6.8,9.5s0,69.3,0,69.3ZM49.1,45.4L9.8,83.4h103l-37.6-38.1-11,9.2h0c-1,.8-2.4.8-3.5,0l-11.7-9.2ZM80.7,40.5l35.5,38.6V9.2l-35.5,31.3ZM10.2,5.4l52.2,42.3L112.3,5.4H10.2Z"/>
</svg>