<svg xmlns="http://www.w3.org/2000/svg" xmlns:xlink="http://www.w3.org/1999/xlink" viewBox="0,0,256,256" width="80px" height="80px" fill-rule="nonzero"><g fill="none" fill-rule="nonzero" stroke="none" stroke-width="1" stroke-linecap="butt" stroke-linejoin="miter" stroke-miterlimit="10" stroke-dasharray="" stroke-dashoffset="0" font-family="none" font-weight="none" font-size="none" text-anchor="none" style="mix-blend-mode: normal"><g transform="scale(3.2,3.2)"><path d="M76.999,40.001c0,17.44 -12.02,31.86 -27.97,35.89c-2.9,0.72 -5.92,1.11 -9.03,1.11c-3.08,0 -6.09,-0.38 -8.97,-1.1c-15.98,-4 -28.03,-18.44 -28.03,-35.9c0,-20.6 16.4,-37 37,-37c20.6,0 37,16.4 37,37z" fill="#333333"></path><circle cx="39.999" cy="40.001" r="37" fill="none"></circle><path d="M64.029,38.521c0,4.49 -2.32,10.73 -6.13,13.83c-3.08,2.51 -7.15,3.3 -11.75,3.55c1.73,1.05 2.88,2.95 2.88,5.12v14.87c-2.9,0.72 -5.92,1.11 -9.03,1.11c-3.08,0 -6.09,-0.38 -8.97,-1.1v-9.77c-1.25,0.39 -2.89,0.62 -5,0.51c-7,-0.37 -8,-4.62 -9.12,-7.62c-1.13,-3 -4.63,-3.38 -4.13,-4.62c2.416,-0.829 4.314,-0.039 5.597,0.938c1.018,0.776 1.728,1.871 2.203,3.06c0.543,1.358 1.986,3.622 5.57,3.622c2.53,0 4.03,-0.59 4.89,-1.17c0.05,-2.12 1.21,-3.96 2.91,-4.97c-4.88,-0.31 -9.16,-1.23 -12.31,-3.97c-3.5,-3.04 -5.61,-9.11 -5.61,-13.39c0,-3.57 1.47,-7.97 3.99,-10.74c0.08,-0.08 0.15,-0.17 0.25,-0.25c-0.58,-1.74 -1.25,-5.18 0.38,-9.39c4.85,-0.09 8.68,2.56 10.24,3.84c2.82,-0.65 5.9,-0.96 9.14,-0.96c3.32,0 6.49,0.29 9.36,0.96c1.56,-1.28 5.4,-3.93 10.24,-3.83c1.7,4.38 0.91,7.93 0.32,9.59c2.58,2.97 4.08,7.18 4.08,10.78z" fill="#ffffff"></path><path d="M39.999,3.001c-20.6,0 -37,16.4 -37,37c0,20.6 16.78,37 37,37c20.22,0 37,-16.4 37,-37c0,-20.6 -16.4,-37 -37,-37zM39.999,76.001c-19.85,0 -36,-16.15 -36,-36c0,-9.7 3.72,-18.76 10.48,-25.52c6.76,-6.76 15.83,-10.48 25.52,-10.48c9.7,0 18.76,3.72 25.52,10.48c6.76,6.76 10.48,15.82 10.48,25.52c0,19.85 -16.15,36 -36,36z" fill="#ffffff"></path></g></g></svg>