<?xml version="1.0" encoding="UTF-8"?>
<svg id="Layer_1" xmlns="http://www.w3.org/2000/svg" xmlns:xlink="http://www.w3.org/1999/xlink" version="1.1" viewBox="0 0 75 75">
  <!-- Generator: Adobe Illustrator 29.2.1, SVG Export Plug-In . SVG Version: 2.1.0 Build 116)  -->
  <defs>
    <style>
      .st0 {
        fill: #333;
      }
    </style>
  </defs>
  <path id="Path_88" class="st0" d="M72,0h-28.4c-1,0-1.9.8-1.9,1.9s0,.7.3.9l30.9,53.6c.3.5,1,.7,1.5.4.4-.2.6-.6.6-1V3c0-1.7-1.3-3-3-3"/>
  <path id="Path_89" class="st0" d="M32.8,1.9c-.7-1.2-1.9-1.9-3.3-1.9H3.2c-1,0-1.9.8-1.9,1.9s.1.7.3.9l40.6,70.3c.7,1.2,1.9,1.9,3.2,1.9h26.3c1,0,1.9-.8,1.9-1.9s0-.7-.3-.9L32.8,1.9Z"/>
  <path id="Path_90" class="st0" d="M2.1,18.6c-.3-.5-1-.7-1.5-.4-.3.2-.6.6-.6,1v52.8c0,1.7,1.3,3,3,3h28.4c1,0,1.9-.8,1.9-1.9s0-.7-.3-.9L2.1,18.6Z"/>
</svg>