<?xml version="1.0" encoding="UTF-8"?>
<svg id="Layer_1" xmlns="http://www.w3.org/2000/svg" version="1.1" viewBox="0 0 560 400">
  <!-- Generator: Adobe Illustrator 29.2.1, SVG Export Plug-In . SVG Version: 2.1.0 Build 116)  -->
  <defs>
    <style>
      .st0 {
        fill: #333;
      }
    </style>
  </defs>
  <path class="st0" d="M316.5,223.4v18.5c0,15.9,0,25.5-27.8,25.5h-12.7c-27.8,0-27.8-9.6-27.8-25.5v-18.5c1.6-.1,3.3-.2,4.9-.3v18.8c0,7.4,0,12.8,2.6,15.8,2.7,3.2,9,4.7,20.3,4.7h12.7c11.3,0,17.6-1.5,20.3-4.7,2.6-3.1,2.6-8.4,2.6-15.8v-18.8c1.6,0,3.3.2,4.9.3h0Z"/>
  <path class="st0" d="M384,277.7c-12,13.9-33.5,21.4-64,22.3h-74.9c-30.6-.9-52.2-8.4-64.2-22.3-9.3-10.9-9.4-21.9-9.3-24.2v-19.2c1.6-.4,3.3-.7,4.9-1v20.3c0,1.1-.4,11,8,20.8,11,12.8,31.4,19.8,60.6,20.6h74.7c29.1-.9,49.5-7.8,60.5-20.6,8.2-9.6,8.2-19,8.1-20.7v-20.3c1.6.3,3.3.7,4.9,1v19.1c.1,3.1-.2,13.6-9.3,24.2h0Z"/>
  <polygon class="st0" points="393.3 100 393.3 157.4 388.4 157.4 388.4 105 316.5 105 316.5 157.4 311.7 157.4 311.7 100 393.3 100"/>
  <polygon class="st0" points="253.2 100 253.2 157.4 248.3 157.4 248.3 105 176.5 105 176.5 157.4 171.6 157.4 171.6 100 253.2 100"/>
  <path class="st0" d="M243.1,223.7c.7,0,1.4,0,2-.1h0c-.7,0-1.4,0-2,.1ZM237.9,224.2c1.6-.1,3.3-.3,4.9-.4-1.7.1-3.4.3-5.1.4h.2ZM179.7,232.6c.4,0,.9-.2,1.3-.3,1.5-.3,3-.6,4.5-.9,1.5-.3,3-.6,4.5-.8,2.2-.4,4.5-.8,6.7-1.2s4.5-.8,6.7-1.1c1.5-.2,3-.5,4.5-.7.9-.1,1.8-.3,2.7-.4-10.3,1.4-20.6,3.2-30.8,5.3h0ZM210.5,227.3c2.1-.3,4.2-.6,6.3-.9-2.1.3-4.2.6-6.3.9ZM193.1,187.5c-2-.1-25-.4-25-.4v-8.6c0-.7.8-1.8,1.9-1.9,4-.2,8-.3,12.1-.5,1.2,0,2.3.8,2.3,1.7v6.1c6.2-.4,12.4-.7,18.5-1v-9.9c0-3.7-3.7-7.5-9-7.5-11.5,0-23.1.2-34.6.3-5,0-9.3,4.3-9.3,9.3v20.5c0,3.2,4.4,7,7.8,6.8.5,0,26.1-1.2,26.1-1.1v8.6c0,.9-1.2,1.8-1.9,1.9-3.8.5-7.6,1.1-11.4,1.8-1.1.2-2-.6-2-1.5v-7c-6.2.8-12.3,1.8-18.5,2.8v12.4c0,4.1,4.2,7.9,8.9,6.8,11-2.4,22-4.5,33.1-6.3,4.4-.8,11.3-5.6,11.3-9.5,0-6.1,0-12.1.1-18.2,0-4.7-7.1-5.6-10.6-5.6h.2ZM205.9,165.5v11c6.5-.2,13-.4,19.5-.5,0,13.5-.2,27.1-.2,40.6,6-.6,12-1.1,18-1.4,0-13.2.1-26.3.2-39.5,7-.1,14-.2,21-.2,1.7-3.4,3.4-6.8,5.1-10.1-21.1,0-42.3,0-63.4.2h-.2ZM409.8,216.8c-10.3-2-20.6-3.8-30.9-5.3v-12.2c9.3,1,18.6,2.2,27.9,3.5v-11.9c-9.3-.9-18.6-1.7-28-2.5v-11.1c9.9.4,19.9.9,29.8,1.5v-13c-35.4-.4-75.7-.6-111.2-.6,1.7,3.4,3.4,6.8,5.1,10.2,7,0,14,.2,21,.3,0,13.4.2,26.8.2,40.1,6,.5,12,1.1,17.9,1.8,0-13.8-.2-27.7-.3-41.5,5,.1,14.9.3,19.9.5,0,14.4.2,28.7.3,43,16.2,2.4,32.3,5.5,48.3,9.3v-12.2h0ZM294.1,165.3h-21.6c-8.4,16.3-16.9,32.6-25.4,49.6,5.9-.3,11.9-.6,17.8-.7,1.5-3.3,2.9-6.6,4.4-9.9,8.6-.1,17.1,0,25.7.2,1.5,3.3,3,6.7,4.5,10,6.7.3,13.4.7,20.1,1.2-8.5-17.4-17-34-25.5-50.4h0ZM273.5,194.4c3-6.5,5.9-13.1,8.9-19.6h.3c2.8,6.5,5.5,13.1,8.3,19.7-5.8,0-11.6-.1-17.4,0h0ZM319.7,157.4h65.5-65.5ZM179.7,157.4h65.5-65.5Z"/>
  <path class="st0" d="M319.7,291.7h-74.5c-68.4-2-65.5-38-65.5-38v-21.1c.4,0,.9-.2,1.3-.3,1.5-.3,3-.6,4.5-.9,1.5-.3,3-.6,4.5-.8,2.2-.4,4.5-.8,6.7-1.2s4.5-.7,6.7-1.1c1.5-.2,3-.5,4.5-.7,3-.4,6-.9,9-1.2.7,0,1.4-.2,2.1-.3,1.5-.2,3-.4,4.5-.5h.7c1.2-.1,2.4-.3,3.5-.4,1.5-.2,2.9-.3,4.4-.5h1.2c1.5-.1,2.9-.3,4.4-.4h.2c1.6-.1,3.3-.3,4.9-.4h.3c.7,0,1.4,0,2-.1v18.2c0,16,0,28.8,31,28.8h12.7c30.9,0,30.9-12.7,30.9-28.8v-18.2c22,1.6,43.8,4.6,65.5,9.1v21s3,36-65.5,38v-.2Z"/>
  <rect class="st0" x="319.7" y="107.6" width="65.5" height="49.1"/>
  <rect class="st0" x="179.7" y="108.3" width="65.5" height="49.1"/>
</svg>